<svg width="26" height="26" viewBox="0 0 26 26" fill="none" xmlns="http://www.w3.org/2000/svg">
<path d="M17.4862 12.2455C16.1223 11.1371 14.3348 11.6304 13.4237 12.5241L12.9942 12.9478L12.5647 12.5241C11.6768 11.6478 9.88348 11.1254 8.50223 12.2455C7.13259 13.354 7.06295 15.3504 8.2875 16.5518L12.5009 20.6897C12.7737 20.9567 13.2147 20.9567 13.4875 20.6897L17.7009 16.5518C18.9254 15.3504 18.8558 13.354 17.4862 12.2455ZM25.9942 8.35714C25.9942 7.74196 25.8433 7.13839 25.5531 6.59866L22.7036 1.26518C22.454 0.510714 21.746 0 20.9451 0H5.05491C4.25402 0 3.54598 0.510714 3.29062 1.27098L0.441071 6.60446C0.150893 7.1442 0 7.74777 0 8.36295C0.00580357 11.8741 0 24.1429 0 24.1429C0 25.1701 0.829911 26 1.85714 26H24.1429C25.1701 26 26 25.1701 26 24.1429C26 24.1429 25.9942 11.8741 25.9942 8.35714ZM14.3929 2.78571H20.3589L22.3438 6.5H14.3929V2.78571ZM5.64107 2.78571H11.6071V6.5H3.65625L5.64107 2.78571ZM2.78571 23.2143C2.78571 21.096 2.79152 13.7254 2.79152 9.28571H23.2085C23.2085 13.7254 23.2143 21.096 23.2143 23.2143H2.78571Z" fill="#38AAFD"/>
</svg>
