<svg width="26" height="26" viewBox="0 0 26 26" fill="none" xmlns="http://www.w3.org/2000/svg">
<path d="M11.4563 11.7965L14.0004 12.5227C14.1832 12.5734 14.3102 12.7461 14.3102 12.934C14.3102 13.1676 14.1172 13.3605 13.8836 13.3605H12.218C12.0352 13.3605 11.8574 13.3199 11.6949 13.2488C11.4512 13.1371 11.1668 13.1625 10.9789 13.3504L10.0902 14.2391C9.82109 14.5082 9.85156 14.9652 10.1664 15.1734C10.6488 15.4934 11.2023 15.6863 11.7812 15.7574V16.6562C11.7812 17.1031 12.1469 17.4688 12.5938 17.4688H13.4062C13.8531 17.4688 14.2188 17.1031 14.2188 16.6562V15.7625C15.7574 15.5797 16.9305 14.1883 16.7223 12.5633C16.575 11.3953 15.6711 10.466 14.5437 10.141L11.9996 9.41484C11.8168 9.36406 11.6898 9.19141 11.6898 9.00352C11.6898 8.76992 11.8828 8.57695 12.1164 8.57695H13.782C13.9648 8.57695 14.1426 8.61758 14.3051 8.68867C14.5488 8.80039 14.8332 8.775 15.0211 8.58711L15.9098 7.69844C16.1789 7.4293 16.1484 6.97227 15.8336 6.76406C15.3512 6.44414 14.7977 6.25117 14.2188 6.18008V5.28125C14.2188 4.83437 13.8531 4.46875 13.4062 4.46875H12.5938C12.1469 4.46875 11.7812 4.83437 11.7812 5.28125V6.175C10.2426 6.35781 9.06953 7.74922 9.27773 9.37422C9.425 10.5422 10.3238 11.4715 11.4563 11.7965ZM24.375 16.25H22.6129C23.4762 14.6809 23.9688 12.8832 23.9688 10.9688C23.9688 4.91055 19.0582 0 13 0C6.9418 0 2.03125 4.91055 2.03125 10.9688C2.03125 12.8832 2.52383 14.6809 3.38711 16.25H1.625C0.726172 16.25 0 17.1234 0 18.2V24.05C0 25.1266 0.726172 26 1.625 26H24.375C25.2738 26 26 25.1266 26 24.05V18.2C26 17.1234 25.2738 16.25 24.375 16.25ZM13 2.4375C17.7023 2.4375 21.5312 6.26641 21.5312 10.9688C21.5312 15.6711 17.7023 19.5 13 19.5C8.29766 19.5 4.46875 15.6711 4.46875 10.9688C4.46875 6.26641 8.29766 2.4375 13 2.4375ZM23.5625 23.5625H2.4375V18.6875H5.21016C5.82969 19.3121 6.52539 19.8504 7.27695 20.3125H5.28125C5.05781 20.3125 4.875 20.4953 4.875 20.7188V21.5312C4.875 21.7547 5.05781 21.9375 5.28125 21.9375H20.7188C20.9422 21.9375 21.125 21.7547 21.125 21.5312V20.7188C21.125 20.4953 20.9422 20.3125 20.7188 20.3125H18.723C19.4746 19.8504 20.1703 19.3121 20.7898 18.6875H23.5625V23.5625Z" fill="#44BE8D"/>
</svg>
