<svg width="32" height="25" viewBox="0 0 32 25" fill="none" xmlns="http://www.w3.org/2000/svg">
<path d="M14.9377 12.0631C15.2526 12.3805 15.6276 12.4976 15.9975 12.4976C16.3624 12.5025 16.7424 12.3805 17.0573 12.0631L21.9916 7.08368C23.4963 5.56543 23.8113 2.68514 21.6916 0.917921C19.7719 -0.68332 17.2373 0.0489546 15.9975 1.2987C14.7577 0.0489546 12.2231 -0.68332 10.3084 0.917921C8.18872 2.68514 8.50367 5.56543 10.0084 7.08368L14.9377 12.0631ZM11.8232 2.71443C12.528 2.12861 13.6279 2.27507 14.2878 2.94388L15.9975 4.66717L17.7022 2.939C18.3621 2.27019 19.467 2.12373 20.1668 2.70955C21.1117 3.49553 20.9517 4.77945 20.3018 5.4385L15.9975 9.78821L11.6932 5.4385C11.0383 4.78433 10.8833 3.50041 11.8232 2.71443ZM28.6405 4.69646C26.5459 4.55977 24.7961 6.18542 24.7961 8.20161C24.7961 8.20161 24.7911 10.1055 24.7861 11.9118C23.2964 10.9452 21.1617 11.1551 19.9469 12.6929L16.3574 17.2476C16.2225 17.4185 16.1075 17.6089 15.9975 17.7944C15.8825 17.6089 15.7725 17.4185 15.6376 17.2476L12.0481 12.6929C10.8183 11.1356 8.67864 10.9599 7.20887 11.9118C7.20387 10.1006 7.19888 8.20161 7.19888 8.20161C7.19888 6.18542 5.44915 4.55977 3.35448 4.69646C1.43977 4.8185 0 6.45392 0 8.32366V17.6724C0 18.9075 0.434932 20.123 1.22481 21.0897L4.15935 24.7022C4.30933 24.8877 4.54429 25 4.78425 25H5.59912C6.03906 25 6.399 24.6485 6.399 24.2189C6.399 23.8528 6.26902 23.4964 6.03906 23.2132L3.09952 19.6251C2.64459 19.0735 2.39963 18.3851 2.39963 17.6724V8.24555C2.39963 7.67926 2.78956 7.1569 3.35947 7.05438C4.12436 6.90793 4.79925 7.4791 4.79925 8.20161C4.79925 8.20161 4.80925 13.1323 4.81425 14.6749C4.81425 15.0459 4.95423 15.3974 5.20419 15.6806L9.02859 20.2012C9.91345 21.2459 11.6382 20.0401 10.7233 18.8245L8.24871 15.5537C7.84377 15.0411 7.94376 14.3039 8.46868 13.9085C9.00859 13.4984 9.75848 13.6253 10.1534 14.1233L13.7379 18.6731C14.1678 19.2199 14.4028 19.8887 14.4028 20.5771V24.214C14.4028 24.6436 14.7627 24.9951 15.2026 24.9951H16.8024C17.2423 24.9951 17.6022 24.6436 17.6022 24.214V20.5819C17.6022 19.8936 17.8372 19.2248 18.2671 18.678L21.8516 14.1282C22.2465 13.6302 22.9964 13.5082 23.5363 13.9134C24.0612 14.3088 24.1612 15.0411 23.7563 15.5585L21.2817 18.8294C20.3618 20.0449 22.0915 21.2508 22.9764 20.206L26.8008 15.6855C27.0508 15.4023 27.1858 15.0508 27.1908 14.6798C27.1858 13.1323 27.1958 8.20161 27.1958 8.20161C27.1958 7.4791 27.8656 6.90793 28.6355 7.05438C29.2054 7.16178 29.5954 7.67926 29.5954 8.24555V17.6724C29.5954 18.3802 29.3504 19.0686 28.8955 19.6202L25.9609 23.2035C25.726 23.4915 25.601 23.843 25.601 24.2091C25.601 24.6387 25.9609 24.9902 26.4009 24.9902H27.2157C27.4607 24.9902 27.6907 24.8828 27.8407 24.6924L30.7752 21.0799C31.5651 20.1133 32 18.9026 32 17.6626V8.32366C31.995 6.45392 30.5552 4.8185 28.6405 4.69646Z" fill="#E29B11"/>
</svg>
